<?xml version="1.0" encoding="utf-8"?>
<!-- Uploaded to: SVG Repo, www.svgrepo.com, Generator: SVG Repo Mixer Tools -->
<!DOCTYPE svg PUBLIC "-//W3C//DTD SVG 1.1//EN" "http://www.w3.org/Graphics/SVG/1.1/DTD/svg11.dtd">
<svg version="1.1" id="Capa_1" xmlns="http://www.w3.org/2000/svg" xmlns:xlink="http://www.w3.org/1999/xlink" 
	 width="800px" height="800px" viewBox="0 0 800 800" enable-background="new 0 0 800 800" xml:space="preserve">
<g>
	<path fill="#FFFFFF" d="M116.129,154.839H25.807v490.322h748.387V154.839H167.742c-7.126,0-12.903-5.775-12.903-12.903h-25.807
		C129.032,149.063,123.255,154.839,116.129,154.839z M400,258.064c78.264,0,141.936,63.673,141.936,141.936
		c0,78.263-63.672,141.936-141.936,141.936S258.064,478.263,258.064,400C258.064,321.738,321.736,258.064,400,258.064z"/>
	<path d="M787.097,129.032H167.742c-7.126,0-12.903,5.775-12.903,12.903s5.777,12.903,12.903,12.903h606.451v490.322H25.807V154.839
		h90.322c7.126,0,12.903-5.775,12.903-12.903s-5.777-12.903-12.903-12.903H12.903C5.777,129.032,0,134.808,0,141.936v516.129
		c0,7.128,5.777,12.903,12.903,12.903h774.193c7.126,0,12.903-5.775,12.903-12.903V141.936
		C800,134.808,794.223,129.032,787.097,129.032z"/>
	<path fill="#ED1F34" d="M400,517.129c-64.585,0-117.129-52.544-117.129-117.129S335.415,282.871,400,282.871
		S517.129,335.415,517.129,400S464.585,517.129,400,517.129z"/>
	<path fill="#ED1F34" d="M400,516.129c64.034,0,116.129-52.095,116.129-116.129S464.034,283.871,400,283.871
		S283.871,335.966,283.871,400S335.966,516.129,400,516.129z"/>
	<path d="M400,541.936c78.264,0,141.936-63.673,141.936-141.936c0-78.262-63.672-141.936-141.936-141.936
		S258.064,321.738,258.064,400C258.064,478.263,321.736,541.936,400,541.936z M400,283.871c64.034,0,116.129,52.095,116.129,116.129
		S464.034,516.129,400,516.129S283.871,464.034,283.871,400S335.966,283.871,400,283.871z"/>
</g>
</svg>